<?xml version="1.0" standalone="no"?>
<!DOCTYPE svg PUBLIC "-//W3C//DTD SVG 1.1//EN" "http://www.w3.org/Graphics/SVG/1.1/DTD/svg11.dtd" >
<svg xmlns="http://www.w3.org/2000/svg">
<metadata>Generated by IcoMoon</metadata>
<defs>
<font id="icomoon" horiz-adv-x="1024">
<font-face units-per-em="1024" ascent="960" descent="-64" />
<missing-glyph horiz-adv-x="1024" />
<glyph unicode="&#x20;" d="" horiz-adv-x="512" />
<glyph unicode="&#xe600;" d="M1020.864 334.097c-0.192 8.192-0.448 15.808-0.448 21.696 0 107.648-39.040 198.208-107.072 248.576-55.488 41.024-129.92 53.376-211.968 34.752-42.24 67.712-126.272 116.16-203.136 116.16-97.024 0-218.048-46.72-247.232-177.344-56.576 10.88-106.688 1.28-147.136-27.392-67.008-47.424-103.872-145.088-103.872-275.008v-36.672h348.224v73.344h-273.6c5.632 85.312 31.488 149.952 71.68 178.432 31.040 22.016 72.704 24.128 123.264 6.272l46.464-16.32 2.368 49.152c5.504 112.256 100.288 152.128 179.84 152.128 59.648 0 128.384-45.568 149.952-99.456l12.544-31.36 32.256 9.856c72.832 22.208 132.672 16.96 176.64-15.616 48.448-35.84 77.312-106.688 77.312-189.568 0-7.040 0.256-16.32 0.576-26.112 0.128-4.8 0.32-11.072 0.448-17.408h-284.8v-73.408h348.992l6.912 27.712c3.2 12.864 2.88 33.152 1.792 67.584zM510.784 549.713l-162.048-162.048 51.904-51.904 73.472 73.408v-354.24h73.408v354.24l73.472-73.408 51.84 51.904z" />
<glyph unicode="&#xe601;" d="M777.792 850.897l-1.024-0.896-88.576 87.808-353.984-328.704 45.504-48.96 307.008 285.12 41.088-40.704-615.104-571.2-51.136-285.12 288.512 29.312 665.088 617.536-237.376 255.808zM920.768 598.673l-193.984-180.16-146.496 157.76 193.984 180.16 146.496-157.76zM164.864 145.553l101.44-109.248-123.264-12.544 21.824 121.792zM407.68 122.193l-69.76-64.768-146.496 157.76 339.904 315.584 146.496-157.696-270.144-250.88z" />
<glyph unicode="&#xe602;" d="M902.4 639.697v137.664h-902.4v-597.376h120.448v-137.664h902.4v597.376h-120.448zM59.264 718.097h783.936v-478.912h-783.936v478.912zM963.584 101.521h-783.872v78.464h722.688v400.448h61.184v-478.912zM770.048 684.689l-36.736-36.736-36.8 36.736-26.048-26.048 36.736-36.8-36.736-36.8 26.048-26.048 36.8 36.736 36.736-36.736 26.112 26.048-36.736 36.8 36.736 36.8zM150.080 508.241h357.056v-59.264h-357.056v59.264zM150.080 407.249h494.72v-59.264h-494.72v59.264z" />
<glyph unicode="&#xe603;" d="M1020.032 375.249c-0.192 8.32-0.448 16.064-0.448 21.952 0 107.52-38.976 198.080-106.944 248.448-26.752 19.776-72.512 43.328-138.688 43.328-23.296 0-47.872-2.88-73.152-8.64-42.112 67.712-126.080 116.032-202.944 116.032-96.896 0-217.856-46.656-247.040-177.152-56.32 10.752-106.56 1.28-147.008-27.392-66.944-47.296-103.808-144.896-103.808-274.688v-36.8h373.568v73.472h-298.88c5.696 85.12 31.488 149.696 71.616 178.112 30.912 21.952 72.704 23.936 123.072 6.272l46.464-16.32 2.432 49.216c5.504 112.064 100.16 151.872 179.584 151.872 59.648 0 128.192-45.504 149.824-99.328l12.544-31.36 32.256 9.856c72.704 22.272 132.416 17.024 176.448-15.552 48.384-35.776 77.248-106.56 77.248-189.376 0-6.976 0.256-16.192 0.576-26.048 0.128-4.864 0.32-11.008 0.448-17.344h-310.208v-73.472h374.272l6.976 27.84c3.2 12.864 2.816 33.152 1.792 67.072zM547.136 145.489v353.728h-73.472v-353.728l-73.344 73.216-51.968-51.968 162.048-161.984 161.984 161.984-51.904 52.032z" />
<glyph unicode="&#xe604;" d="M512 936.017c-275.072 0-498.944-223.808-498.944-498.944s223.872-498.944 498.944-498.944 498.944 223.872 498.944 498.944-223.808 498.944-498.944 498.944zM512-1.775c-241.984 0-438.848 196.864-438.848 438.848s196.864 438.848 438.848 438.848 438.848-196.864 438.848-438.848-196.864-438.848-438.848-438.848zM745.984 713.553l-233.984-233.984-233.984 233.984-42.496-42.496 233.984-233.984-233.984-233.984 42.496-42.496 233.984 233.984 233.984-233.984 42.496 42.496-233.984 233.984 233.984 233.984z" />
<glyph unicode="&#xe605;" d="M743.104 363.153l120.512 120.576-547.328 142.592 142.592-547.328 122.88 122.88 269.44-269.376 161.28 161.28-269.376 269.376zM581.76 298.961l-86.656-86.656-82.88 318.080 318.080-82.88-84.352-84.352 269.376-269.44-64.128-64.128-269.44 269.376zM218.852 675.218l-152.326 152.326 48.558 48.558 152.326-152.326-48.558-48.558zM0 643.025h215.424v-68.672h-215.424v68.672zM299.584 942.609h68.672v-215.424h-68.672v215.424zM567.958 883.221l48.558-48.558-152.326-152.326-48.558 48.558 152.326 152.326zM107.94 326.148l-48.565 48.551 152.305 152.348 48.565-48.551-152.305-152.348z" />
<glyph unicode="&#xe606;" d="M665.024 747.537l-305.536 160.064-350.272-175.104v-783.424l349.824 174.848 311.936-160.256 343.872 177.856v783.552l-349.824-177.536zM388.8 825.425l243.456-127.552v-647.744l-243.456 125.056v650.24zM68.416 695.889l261.184 130.56v-651.008l-261.184-130.56v651.008zM955.584 177.617l-264.128-136.64v653.568l264.128 134.080v-651.008z" />
<glyph unicode="&#xe607;" d="M572.859-25.576l-15.869 39.32c-11.004 27.779-39.723 43.346-67.938 36.636-22.545-5.2-36.2-18.050-44.353-41.601l-9.763-28.249h-39.622l-24.927 8.723c-14.393 4.361-28.752 8.756-42.642 14.426-15.802 6.442-31.1 13.957-46.399 21.505l-54.887 26.37 16.372 37.24c16.708 37.945 5.334 57.37-7.951 71.36-20.968 22.076-43.346 24.592-74.379 11.004l-33.281-14.561-19.157 30.866c-26.705 43.011-45.795 88.437-56.699 134.936l-8.387 35.797 34.355 13.017c37.542 14.225 43.48 35.361 44.353 54.149 0.973 21.673-3.69 46.030-45.762 61.966l-34.187 12.95 8.186 35.63c11.038 48.177 29.624 93.872 55.223 135.842l19.526 32.006 33.986-15.835c29.557-13.789 51.297-12.145 72.165 7.951 15.332 14.695 28.416 35.093 9.729 74.983l-15.802 33.751 31.604 19.694c41.903 26.102 87.564 45.191 135.775 56.766l36.905 8.857 12.514-35.797c13.286-38.079 35.328-44.285 53.042-45.426 22.981-1.409 47.338 1.308 63.744 46.131l12.044 32.946 34.556-6.072c41.199-7.213 112.592-37.039 141.546-59.047l27.075-20.599-14.561-30.731c-17.244-36.401-6.542-55.793 6.207-69.884 16.875-18.721 31.671-20.901 41.333-20.901 10.501 0 22.445 3.019 35.529 9.025l33.717 15.433 19.459-31.57c20.667-33.55 37.072-70.119 48.68-108.634l8.891-28.92v-35.428l-31.973-13.252c-25.263-8.79-41.031-29.96-41.266-55.256-0.268-26.135 14.728-47.305 40.125-56.632l6.811-2.952 30.195-14.795-6.106-33.55c-11.608-48.144-30.564-93.536-56.33-134.903l-19.19-30.832-33.248 14.594c-29.524 12.95-51.096 10.937-71.628-9.025-14.661-14.225-27.309-34.019-10.467-73.105l14.426-33.382-31-18.989c-42.407-25.934-87.9-44.688-135.272-55.759l-35.026-8.186zM332.007 93.693c9.058-4.395 18.15-8.622 27.444-12.413 7.784-3.187 15.802-5.838 23.887-8.354 19.996 30.295 49.419 50.492 86.726 59.148 57.739 13.286 117.994-11.373 150.034-59.047 17.446 5.703 34.321 12.682 50.928 21.069-10.031 48.949 3.892 94.14 40.696 129.87 35.193 34.221 79.915 47.439 127.186 37.542 8.253 16.204 15.232 32.912 21.036 50.324-39.991 26.034-64.818 70.857-64.315 120.913 0.503 48.613 25.028 91.892 64.851 117.692-5.771 17.479-12.581 34.086-20.566 50.123-52.069-11.877-100.38 4.059-137.050 44.722-32.208 35.73-43.346 79.211-32.711 125.106-14.896 7.213-33.214 14.795-49.955 20.499-28.618-46.131-73.339-69.548-131.045-65.891-47.271 3.087-85.149 25.9-109.674 65.254-17.144-5.771-33.784-12.715-49.888-20.868 11.809-50.324-2.080-96.891-40.629-133.963-35.663-34.254-80.787-47.171-128.26-36.502-8.018-16.238-14.795-33.013-20.365-50.291 44.722-28.316 67.602-72.333 65.12-127.086-2.147-47.406-24.391-85.853-63.476-111.284 5.737-17.043 12.883-33.852 21.405-50.391 49.821 10.635 96.455-4.261 132.32-41.971 33.080-34.791 45.426-77.902 36.301-124.201zM500.492 245.438c-103.4 0.436-186.905 84.377-186.603 187.106 0.302 102.293 84.075 185.529 186.703 185.529h1.040c50.492-0.268 97.629-20.398 132.722-56.598 35.16-36.267 53.814-84.075 52.505-134.601-2.583-101.118-84.411-180.799-186.368-181.436zM500.627 576.102v-41.937c-56.531 0-102.662-45.728-102.829-101.924-0.168-56.531 45.862-102.729 102.628-102.964 55.927 0.335 101.219 44.118 102.628 99.709 0.705 27.813-9.528 54.115-28.853 74.077-19.291 19.895-45.225 30.933-72.97 31.1l-0.604 41.937z" />
<glyph unicode="&#xe608;" d="M735.742-13.934c-63.543 0-123.261 24.726-168.184 69.649-61.597 61.597-84.176 151.409-60.356 234.075l-160.937 160.937c-21.371-6.14-43.447-9.226-65.925-9.226-63.543 0-123.261 24.726-168.15 69.649-66.931 66.898-87.799 167.11-53.176 255.346l18.687 47.707 140.204-140.237 68.005 68.005-140.204 140.204 47.707 18.721c27.846 10.937 57.168 16.473 87.162 16.473 63.576 0 123.261-24.726 168.184-69.649 61.597-61.563 84.176-151.409 60.389-234.075l160.937-160.937c21.371 6.14 43.447 9.26 65.925 9.26 63.543 0 123.261-24.726 168.184-69.649 66.931-66.931 87.799-167.144 53.143-255.312l-18.754-47.707-140.17 140.204-68.005-68.005 140.237-140.204-47.707-18.721c-27.88-10.937-57.202-16.506-87.195-16.506zM363.443 528.428l221.461-221.461-8.018-20.432c-24.86-63.375-9.897-135.339 38.146-183.382 34.12-34.12 81.022-52.17 128.629-49.788l-108.13 108.097 162.883 162.883 108.164-108.13c2.147 47.171-15.299 94.073-49.821 128.629-47.54 47.506-121.080 62.637-183.416 38.146l-20.432-8.018-221.427 221.461 8.018 20.432c24.86 63.375 9.864 135.339-38.179 183.382-34.12 34.153-80.754 51.801-128.629 49.855l108.097-108.13-162.883-162.883-108.13 108.13c-2.147-47.204 15.299-94.107 49.821-128.629 47.506-47.506 121.114-62.603 183.382-38.146l20.465 7.985z" />
<glyph unicode="&#xe609;" d="M512 949.073c92.429 0 178.014-22.914 256.654-68.676 78.674-45.795 140.875-107.996 186.67-186.67 45.762-78.674 68.676-164.259 68.676-256.654 0-68.441-12.917-133.796-38.683-195.997-25.8-62.234-62.905-117.591-111.351-166.003-48.446-48.446-103.802-85.585-166.003-111.351-62.234-25.8-127.589-38.683-195.997-38.683-92.463 0-178.014 22.881-256.654 68.676-78.674 45.762-140.908 107.996-186.67 186.67s-68.642 164.225-68.642 256.688c0 92.865 22.881 178.551 68.676 256.99 45.762 78.472 107.895 140.573 186.368 186.368 78.405 45.728 164.057 68.642 256.956 68.642zM668.676 58.734c49.754 20.633 94.006 50.324 132.655 88.973 38.683 38.683 68.34 82.867 88.973 132.655 20.7 49.754 31.033 101.991 31.033 156.676 0 55.558-10.904 108.566-32.677 159.025-21.774 50.425-50.928 93.972-87.33 130.676-36.468 36.636-79.882 65.757-130.307 87.296-50.459 21.572-103.467 32.342-159.025 32.342-55.592 0-108.566-10.769-159.025-32.342-50.425-21.539-93.972-50.66-130.676-87.296-36.636-36.703-65.757-80.251-87.296-130.676-21.572-50.459-32.342-103.467-32.342-159.025 0-55.592 10.769-108.566 32.342-159.025 21.539-50.425 50.66-93.972 87.296-130.676 36.703-36.636 80.251-65.757 130.676-87.296 50.459-21.572 103.433-32.342 159.025-32.342 54.686 0.034 106.889 10.333 156.676 31.033zM436.010 512.392l251.991 139.331 38.012-37.341-140.002-252.662-251.991-139.331-38.012 37.341 140.002 252.662zM476.974 402.047c9.595-9.528 21.237-14.326 35.026-14.326 13.755 0 25.431 4.764 35.026 14.326 9.528 9.595 14.326 21.237 14.326 35.026 0 13.755-4.764 25.431-14.326 35.026-9.595 9.528-21.27 14.326-35.026 14.326-13.789 0-25.431-4.764-35.026-14.326-9.528-9.595-14.326-21.27-14.326-35.026 0.034-13.789 4.798-25.431 14.326-35.026z" />
<glyph unicode="&#xe60a;" d="M775.934 857.382c25.833-28.786 45.057-62.671 57.605-101.622 12.581-38.918 17.010-78.808 13.386-119.571-4.361-44.42-13.118-80.922-26.202-109.506-13.118-28.584-31.671-58.108-55.692-88.705l-5.469-7.113c-8.018-10.166-13.923-18.117-17.748-23.753-3.791-5.703-7.448-13.722-10.937-24.323-3.456-10.568-5.167-22.176-5.167-34.959v-93.939h-87.363v93.939c0 21.841 3.288 42.474 9.83 61.966s12.749 33.583 18.553 42.306c5.804 8.723 13.99 19.895 24.558 33.348l4.898 5.972c19.66 25.162 34.388 48.345 44.218 69.682 9.83 21.27 16.171 49.049 19.123 83.236 1.443 4.361 1.711 12.749 0.805 25.162-0.906 12.346-2.281 25.162-4.093 38.448-1.845 13.286-6.643 28.349-14.493 45.057-7.817 16.741-17.949 31.839-30.295 45.359-40.763 44.755-102.997 67.166-186.737 67.166s-145.806-22.411-186.2-67.133c-12.413-13.52-22.478-28.685-30.329-45.627-7.817-16.909-12.749-31.973-14.728-45.057-2.013-13.118-3.489-25.8-4.361-38.179-0.906-12.413-0.671-20.801 0.805-25.162 3.288-34.556 9.83-62.469 19.66-83.807 9.83-21.27 24.357-44.319 43.682-69.079l5.469-7.582c10.166-12.749 18.285-23.686 24.323-32.778 5.972-9.125 12.178-23.216 18.553-42.373 6.341-19.090 9.528-39.387 9.528-60.859v-93.939h-87.363v93.939c0 12.346-1.644 23.686-4.898 33.852-3.288 10.166-6.811 18.217-10.669 24.021-3.791 5.804-9.528 13.621-17.177 23.518l-6.542 8.723c-24.021 30.597-42.608 60.121-55.692 88.705-13.118 28.584-21.841 65.086-26.202 109.506-3.69 40.729 0.772 80.62 13.353 119.537 12.548 38.985 31.738 72.836 57.605 101.622 58.242 63.677 141.982 95.549 251.186 95.549s192.944-31.872 251.219-95.549zM323.753 96.646v87.363h401.924v-87.363h-401.924zM568.397 253.926h-87.363v261.552l-98.3 98.3 61.698 61.731 80.284-80.251 80.284 80.251 61.698-61.731-98.3-98.3v-261.552zM411.15-60.635v87.363h227.164v-87.363h-227.164z" />
<glyph unicode="&#xe60b;" d="M512 328.070l-408.567 260.848 408.567 236.726 408.567-236.726-408.567-260.848zM512 265.635l344.89 220.421 63.677-37.139-408.567-260.814-408.567 260.814 64.080 37.139 344.487-220.421zM512 126.035l344.89 220.421 63.677-37.139-408.567-260.814-408.567 260.814 64.080 37.139 344.487-220.421zM229.144 586.033l282.856-180.396 282.856 180.396-282.856 164.494-282.856-164.494z" />
<glyph unicode="&#xe60c;" d="M927.948 98.289l-57.504-57.504-214.751 214.751c-61.060-47.171-129.434-70.722-205.089-70.722-44.453 0-87.028 8.421-127.723 25.162-40.696 16.808-76.829 40.964-108.399 72.534s-55.726 67.602-72.501 108.164c-16.842 40.494-25.229 83.002-25.229 127.455 0 44.42 8.454 87.028 25.431 127.723 16.943 40.696 41.031 76.829 72.266 108.399 31.537 31.537 67.669 55.726 108.399 72.501 40.696 16.808 83.27 25.196 127.723 25.196 44.42 0 86.927-8.387 127.455-25.196 40.561-16.775 76.594-40.964 108.164-72.501 31.537-31.537 55.726-67.669 72.534-108.399 16.775-40.696 25.162-83.304 25.162-127.723 0-76.325-23.585-144.733-70.722-205.089l214.784-214.751zM271.953 340.014c49.184-49.217 108.734-73.776 178.618-73.776 33.583 0 65.724 6.374 96.455 19.056 30.698 12.749 57.907 30.966 81.66 54.719 49.184 49.184 73.776 108.566 73.776 178.115 0 69.884-24.625 129.434-73.776 178.618-23.753 23.72-50.962 42.004-81.66 54.686-30.731 12.749-62.872 19.090-96.455 19.090-69.917 0-129.434-24.625-178.618-73.776-49.217-49.888-73.776-109.405-73.776-178.618 0-68.877 24.592-128.26 73.776-178.115z" />
<glyph unicode="&#xe60d;" d="M895.807 791.86c19.459-19.425 29.188-42.776 29.188-69.984 0-27.276-9.696-50.626-29.188-70.052l-123.764-123.831v-511.899h-673.004v795.36h509.081l-9.562-9.058-62.201-67.435h-360.859v-642.407h520.052v358.98l-142.451-142.384-255.245-78.875 79.345 255.245 342.709 342.642c18.821 19.459 42.071 29.188 69.85 29.188 27.678 0 50.962-9.696 69.75-29.188l36.301-36.301zM512.973 376.046l232.8 232.767-68.844 68.844-232.8-232.767-23.384-75.084 17.211-16.708 75.017 22.948zM842.262 705.805c4.16 4.16 6.24 9.394 6.24 15.802s-2.047 11.776-6.24 16.238l-36.334 36.77c-4.127 4.16-9.562 6.24-16.204 6.24-6.743 0-12.111-2.047-16.305-6.24l-42.507-42.943 68.844-68.844 42.507 42.977z" />
<glyph unicode="&#xe60e;" d="M444.867 436.201l60.758-60.188-268.397-268.397h246.522v-85.216h-391.893v391.993h85.216v-246.556l267.793 268.363zM517.871 840.406h391.926v-391.926h-85.216v246.556l-267.826-268.397-60.758 60.691 268.397 267.86h-246.522v85.216z" />
<glyph unicode="&#xe60f;" d="M112.559 334.344v80.888h372.065v-372.065h-80.888v234.075l-254.775-254.809-57.135 57.135 254.775 254.775h-234.042zM909.797 783.271l-254.775-254.775h234.042v-80.888h-372.065v372.065h80.888v-234.075l254.775 254.775 57.135-57.101z" />
<glyph unicode="&#xe610;" d="M827.648-73.647h-631.296l-32.448 898.56h696.192l-32.448-898.56zM255.040-12.847h513.984l28.096 776.96h-570.176l28.096-776.96zM160 947.793h704v-60.8h-704v60.8zM481.6 628.433h60.8v-505.6h-60.8v505.6zM370.42 629.177l13.151-505.64-60.782-1.581-13.151 505.64 60.782 1.581zM653.64 629.165l60.782-1.599-13.302-505.64-60.782 1.599 13.302 505.64z" />
<glyph unicode="&#xe611;" d="M928 917.329h-676.16v-139.456h-155.84v-821.056h676.16v139.456h155.84v821.056zM705.088 23.889h-542.080v686.912h542.080v-686.912zM860.928 163.345h-88.768v614.528h-453.248v72.384h542.080v-686.912zM400.576 215.057h67.008v118.784h118.784v67.072h-118.784v118.72h-67.008v-118.72h-118.784v-67.072h118.784z" />
<glyph unicode="&#xe612;" d="M944.448 351.377c-5.44-9.728-8.768-16.768-9.92-20.992-1.984-6.272-2.176-16.96-0.576-32.128 2.688-33.472 0-64.128-8.192-92.16-3.136-11.264-7.68-22.144-13.696-32.64s-11.2-18.368-15.424-23.616c-4.288-5.248-10.304-12.352-18.048-21.312-9.728-10.432-17.152-19.584-22.144-27.392-2.304-3.136-5.632-10.496-9.92-22.144-3.904-10.496-7.296-18.752-10.24-24.768-2.88-6.016-7.744-14.080-14.528-24.192s-15.68-19.456-26.56-27.968c-10.88-8.512-24.128-16.512-39.68-23.872-36.928-17.536-82.048-26.24-135.296-26.24h-5.824c-85.952 0-168.128 22.72-246.656 68.224-30.72 18.24-115.264 26.752-253.632 25.664h-18.112v92.096h17.472c25.28 0.768 52.48 0.896 81.664 0.32s56.768-1.664 82.816-3.2c26.048-1.536 51.392-5.248 76.096-11.136 24.704-5.76 44.992-13.376 60.928-22.72 63.36-36.928 130.24-55.36 200.576-55.36 40-1.216 73.28 4.416 99.712 16.896 14.016 6.656 23.488 12.992 28.544 19.2 5.056 6.272 10.112 15.936 15.168 29.248 5.44 16.704 12.032 30.848 19.84 42.56 6.592 9.728 16.704 22.144 30.336 37.312 1.92 2.304 5.184 6.016 9.6 11.136 4.48 5.056 7.68 8.576 9.664 10.752 1.92 2.176 3.968 5.056 6.144 8.768 2.112 3.712 3.776 7.232 4.928 10.816 4.672 15.104 6.208 34.176 4.672 57.088-2.304 24.576-1.408 45.568 2.944 62.976 4.672 19.072 9.92 33.664 15.744 43.776 11.264 20.992 16.896 38.464 16.896 52.48 0 5.824-0.384 10.56-1.152 14.272s-2.816 8.32-6.144 14.016c-3.264 5.568-9.408 9.856-18.368 12.8-8.96 2.88-20.608 4.352-35.008 4.352h-102.656c-41.6 0-76.48 11.136-104.64 33.216-28.224 22.208-43.84 50.752-46.976 85.76-3.456 39.936 7.616 84.672 33.28 134.016 14.016 25.28 20.8 42.624 20.416 51.904-0.448 10.88-5.504 19.072-15.168 24.448-15.168 8.256-30.912 7.424-47.232-2.304-7.424-4.288-23.232-19.52-47.552-45.76-24.256-26.24-51.2-57.664-80.768-94.208l-5.824-6.976c-13.632-17.088-24.128-30.080-31.488-39.040s-17.984-21.312-31.744-37.056c-13.824-15.744-25.6-27.968-35.264-36.736-9.728-8.704-21.76-19.2-36.16-31.488-14.4-12.224-28.224-21.952-41.408-29.184-13.248-7.168-27.84-14.464-43.776-21.824s-32.832-12.992-50.688-16.96c-17.92-3.84-36.352-6.4-55.424-7.552v93.312c15.936 1.536 31.424 4.672 46.336 9.344 14.976 4.672 28.288 9.664 39.936 15.168 11.648 5.44 24.192 13.376 37.632 23.936 13.376 10.432 24.576 19.584 33.536 27.328 8.96 7.808 20.032 19.2 33.216 34.176 13.184 14.912 23.424 26.816 30.592 35.52 7.232 8.768 17.984 21.888 32.384 39.36l5.248 7.616c75.84 92.928 127.744 147.136 155.712 162.624 22.144 12.48 45.248 18.944 69.376 19.264 24.064 0.384 46.848-5.248 68.224-16.96 19.008-10.048 33.984-23.872 44.928-41.344 10.88-17.472 16.896-37.12 18.048-58.944 0.768-12.032-0.576-24.704-4.096-37.888s-7.104-23.872-10.816-32.128c-3.712-8.128-9.024-18.688-16-31.424-16.704-31.936-24.128-59.264-22.144-82.24 0.768-11.648 7.104-20.608 18.944-26.816s24.96-9.344 39.36-9.344h102.656c47.808 0 85.44-12.032 112.832-36.16 27.456-24.128 41.152-57.536 41.152-100.288-0.064-29.44-9.6-61.952-28.608-97.28z" />
<glyph unicode="&#xe613;" d="M511.575 845.649l-48.553-48.553 364.169-364.194-364.169-364.169 48.553-48.578 412.747 412.747zM268.588 845.649l-48.553-48.553 364.194-364.194-364.194-364.169 48.553-48.578 412.747 412.747z" />
</font>
</defs>
</svg>
